<svg width="255" height="157" viewBox="0 0 255 157" fill="none" xmlns="http://www.w3.org/2000/svg">
<rect width="255" height="157" rx="8" fill="#F0F9FF"/>
<path d="M65.912 31.4289L46.037 25.0699C44.7013 24.6431 43.2995 24.6431 41.9638 25.0699L22.0888 31.4289C20.8205 31.8349 20 32.9423 20 34.25C20 35.5577 20.8205 36.6651 22.088 37.0711L24.3163 37.7836C24.0687 38.2422 23.8858 38.7358 23.7665 39.2531C22.9648 39.6375 22.4 40.4339 22.4 41.375C22.4 42.3198 22.9678 43.1206 23.7748 43.5029L22.421 51.805C22.3003 52.5464 22.7143 53.25 23.2715 53.25H26.3278C26.885 53.25 27.2998 52.5464 27.1783 51.805L25.8253 43.5029C26.6323 43.1206 27.2 42.3198 27.2 41.375C27.2 40.5883 26.7883 39.9248 26.1928 39.4921C26.3045 39.1462 26.4778 38.8345 26.6855 38.5413L30.6958 39.8246L29.6 48.5C29.6 51.1236 36.047 53.25 44 53.25C51.953 53.25 58.4 51.1236 58.4 48.5L57.3043 39.8246L65.912 37.0703C67.1795 36.6651 68 35.5577 68 34.25C68 32.9423 67.1795 31.8349 65.912 31.4289ZM55.961 48.3412C55.154 49.1821 51.053 50.875 44 50.875C36.947 50.875 32.846 49.1821 32.039 48.3412L33.0208 40.5682L41.9638 43.4294C42.1588 43.4917 43.8928 44.1144 46.037 43.4294L54.98 40.5682L55.961 48.3412ZM65.171 34.8126L45.296 41.1716C44.4478 41.4433 43.5523 41.4433 42.704 41.1716L29.5288 36.956L44.2205 34.2292C44.8723 34.109 45.3013 33.4885 45.179 32.8436C45.0575 32.1979 44.417 31.7755 43.7795 31.8958L28.496 34.7309C27.566 34.9031 26.7327 35.2987 26.015 35.8316L22.8282 34.8118C22.2395 34.6226 22.2687 33.8663 22.8282 33.6874L42.7033 27.3284C43.8358 26.9662 44.7913 27.1673 45.2952 27.3284L65.1703 33.6874C65.7245 33.8648 65.7635 34.6226 65.171 34.8126Z" fill="#74C1ED"/>
<path d="M24.326 87.112C23.5887 87.112 22.8747 87 22.184 86.776C21.5027 86.5427 20.966 86.244 20.574 85.88L21.092 84.788C21.4653 85.124 21.9413 85.3993 22.52 85.614C23.108 85.8193 23.71 85.922 24.326 85.922C25.138 85.922 25.7447 85.7867 26.146 85.516C26.5473 85.236 26.748 84.8673 26.748 84.41C26.748 84.074 26.636 83.8033 26.412 83.598C26.1973 83.3833 25.9267 83.22 25.6 83.108C25.2827 82.996 24.83 82.87 24.242 82.73C23.5047 82.5527 22.9073 82.3753 22.45 82.198C22.002 82.0207 21.6147 81.75 21.288 81.386C20.9707 81.0127 20.812 80.5133 20.812 79.888C20.812 79.3653 20.9473 78.894 21.218 78.474C21.498 78.054 21.918 77.718 22.478 77.466C23.038 77.214 23.7333 77.088 24.564 77.088C25.1427 77.088 25.712 77.1627 26.272 77.312C26.832 77.4613 27.3127 77.676 27.714 77.956L27.252 79.076C26.8413 78.8147 26.4027 78.6187 25.936 78.488C25.4693 78.348 25.012 78.278 24.564 78.278C23.7707 78.278 23.1733 78.4227 22.772 78.712C22.38 79.0013 22.184 79.3747 22.184 79.832C22.184 80.168 22.296 80.4433 22.52 80.658C22.744 80.8633 23.0193 81.0267 23.346 81.148C23.682 81.26 24.1347 81.3813 24.704 81.512C25.4413 81.6893 26.034 81.8667 26.482 82.044C26.93 82.2213 27.3127 82.492 27.63 82.856C27.9567 83.22 28.12 83.71 28.12 84.326C28.12 84.8393 27.98 85.3107 27.7 85.74C27.42 86.16 26.9953 86.496 26.426 86.748C25.8567 86.9907 25.1567 87.112 24.326 87.112ZM34.1413 86.566C33.9453 86.734 33.7026 86.8647 33.4133 86.958C33.124 87.042 32.8253 87.084 32.5173 87.084C31.7706 87.084 31.192 86.8833 30.7813 86.482C30.3706 86.0807 30.1653 85.5067 30.1653 84.76V80.686H28.9053V79.58H30.1653V77.956H31.5093V79.58H33.6373V80.686H31.5093V84.704C31.5093 85.1053 31.6073 85.4133 31.8033 85.628C32.0086 85.8427 32.298 85.95 32.6713 85.95C33.082 85.95 33.432 85.8333 33.7213 85.6L34.1413 86.566ZM42.6822 79.58V87H41.4082V85.88C41.1375 86.2627 40.7782 86.5613 40.3302 86.776C39.8915 86.9813 39.4109 87.084 38.8882 87.084C37.8989 87.084 37.1195 86.8133 36.5502 86.272C35.9809 85.7213 35.6962 84.914 35.6962 83.85V79.58H37.0402V83.696C37.0402 84.4147 37.2129 84.9607 37.5582 85.334C37.9035 85.698 38.3982 85.88 39.0422 85.88C39.7515 85.88 40.3115 85.6653 40.7222 85.236C41.1329 84.8067 41.3382 84.2 41.3382 83.416V79.58H42.6822ZM52.2408 76.612V87H50.9528V85.824C50.6541 86.2347 50.2761 86.5473 49.8188 86.762C49.3615 86.9767 48.8575 87.084 48.3068 87.084C47.5881 87.084 46.9441 86.9253 46.3748 86.608C45.8055 86.2907 45.3575 85.8473 45.0308 85.278C44.7135 84.6993 44.5548 84.0367 44.5548 83.29C44.5548 82.5433 44.7135 81.8853 45.0308 81.316C45.3575 80.7467 45.8055 80.3033 46.3748 79.986C46.9441 79.6687 47.5881 79.51 48.3068 79.51C48.8388 79.51 49.3288 79.6127 49.7768 79.818C50.2248 80.014 50.5981 80.308 50.8968 80.7V76.612H52.2408ZM48.4188 85.908C48.8855 85.908 49.3101 85.8007 49.6928 85.586C50.0755 85.362 50.3741 85.054 50.5888 84.662C50.8035 84.2607 50.9108 83.8033 50.9108 83.29C50.9108 82.7767 50.8035 82.324 50.5888 81.932C50.3741 81.5307 50.0755 81.2227 49.6928 81.008C49.3101 80.7933 48.8855 80.686 48.4188 80.686C47.9428 80.686 47.5135 80.7933 47.1308 81.008C46.7575 81.2227 46.4588 81.5307 46.2348 81.932C46.0201 82.324 45.9128 82.7767 45.9128 83.29C45.9128 83.8033 46.0201 84.2607 46.2348 84.662C46.4588 85.054 46.7575 85.362 47.1308 85.586C47.5135 85.8007 47.9428 85.908 48.4188 85.908ZM61.4898 83.332C61.4898 83.4347 61.4804 83.57 61.4618 83.738H55.4418C55.5258 84.3913 55.8104 84.9187 56.2958 85.32C56.7904 85.712 57.4018 85.908 58.1298 85.908C59.0164 85.908 59.7304 85.6093 60.2718 85.012L61.0138 85.88C60.6778 86.272 60.2578 86.5707 59.7538 86.776C59.2591 86.9813 58.7038 87.084 58.0878 87.084C57.3038 87.084 56.6084 86.9253 56.0018 86.608C55.3951 86.2813 54.9238 85.8287 54.5878 85.25C54.2611 84.6713 54.0978 84.018 54.0978 83.29C54.0978 82.5713 54.2564 81.9227 54.5738 81.344C54.9004 80.7653 55.3438 80.3173 55.9038 80C56.4731 79.6733 57.1124 79.51 57.8218 79.51C58.5311 79.51 59.1611 79.6733 59.7118 80C60.2718 80.3173 60.7058 80.7653 61.0138 81.344C61.3311 81.9227 61.4898 82.5853 61.4898 83.332ZM57.8218 80.644C57.1778 80.644 56.6364 80.84 56.1978 81.232C55.7684 81.624 55.5164 82.1373 55.4418 82.772H60.2018C60.1271 82.1467 59.8704 81.638 59.4318 81.246C59.0024 80.8447 58.4658 80.644 57.8218 80.644ZM67.318 79.51C68.2607 79.51 69.0074 79.7853 69.558 80.336C70.118 80.8773 70.398 81.6753 70.398 82.73V87H69.054V82.884C69.054 82.1653 68.8814 81.624 68.536 81.26C68.1907 80.896 67.696 80.714 67.052 80.714C66.324 80.714 65.75 80.9287 65.33 81.358C64.91 81.778 64.7 82.3847 64.7 83.178V87H63.356V79.58H64.644V80.7C64.9147 80.3173 65.2787 80.0233 65.736 79.818C66.2027 79.6127 66.73 79.51 67.318 79.51ZM77.0573 86.566C76.8613 86.734 76.6187 86.8647 76.3293 86.958C76.04 87.042 75.7413 87.084 75.4333 87.084C74.6867 87.084 74.108 86.8833 73.6973 86.482C73.2867 86.0807 73.0813 85.5067 73.0813 84.76V80.686H71.8213V79.58H73.0813V77.956H74.4253V79.58H76.5533V80.686H74.4253V84.704C74.4253 85.1053 74.5233 85.4133 74.7193 85.628C74.9247 85.8427 75.214 85.95 75.5873 85.95C75.998 85.95 76.348 85.8333 76.6373 85.6L77.0573 86.566ZM80.8102 87.084C80.2035 87.084 79.6202 87.0047 79.0602 86.846C78.5002 86.678 78.0615 86.468 77.7442 86.216L78.3042 85.152C78.6309 85.3853 79.0275 85.572 79.4942 85.712C79.9609 85.852 80.4322 85.922 80.9082 85.922C82.0842 85.922 82.6722 85.586 82.6722 84.914C82.6722 84.69 82.5929 84.5127 82.4342 84.382C82.2755 84.2513 82.0749 84.158 81.8322 84.102C81.5989 84.0367 81.2629 83.9667 80.8242 83.892C80.2269 83.7987 79.7369 83.6913 79.3542 83.57C78.9809 83.4487 78.6589 83.2433 78.3882 82.954C78.1175 82.6647 77.9822 82.2587 77.9822 81.736C77.9822 81.064 78.2622 80.5273 78.8222 80.126C79.3822 79.7153 80.1335 79.51 81.0762 79.51C81.5709 79.51 82.0655 79.5707 82.5602 79.692C83.0549 79.8133 83.4609 79.9767 83.7782 80.182L83.2042 81.246C82.5975 80.854 81.8835 80.658 81.0622 80.658C80.4929 80.658 80.0589 80.7513 79.7602 80.938C79.4615 81.1247 79.3122 81.372 79.3122 81.68C79.3122 81.9227 79.3962 82.114 79.5642 82.254C79.7322 82.394 79.9375 82.4967 80.1802 82.562C80.4322 82.6273 80.7822 82.702 81.2302 82.786C81.8275 82.8887 82.3082 83.0007 82.6722 83.122C83.0455 83.234 83.3629 83.43 83.6242 83.71C83.8855 83.99 84.0162 84.382 84.0162 84.886C84.0162 85.558 83.7269 86.0947 83.1482 86.496C82.5789 86.888 81.7995 87.084 80.8102 87.084Z" fill="#6C6C6C"/>
<path d="M195.86 125.04V129H179.99V125.85L188.09 118.2C188.95 117.38 189.53 116.68 189.83 116.1C190.13 115.5 190.28 114.91 190.28 114.33C190.28 113.49 189.99 112.85 189.41 112.41C188.85 111.95 188.02 111.72 186.92 111.72C186 111.72 185.17 111.9 184.43 112.26C183.69 112.6 183.07 113.12 182.57 113.82L179.03 111.54C179.85 110.32 180.98 109.37 182.42 108.69C183.86 107.99 185.51 107.64 187.37 107.64C188.93 107.64 190.29 107.9 191.45 108.42C192.63 108.92 193.54 109.64 194.18 110.58C194.84 111.5 195.17 112.59 195.17 113.85C195.17 114.99 194.93 116.06 194.45 117.06C193.97 118.06 193.04 119.2 191.66 120.48L186.83 125.04H195.86ZM216.802 124.59H213.382V129H208.642V124.59H197.332V121.32L207.232 108H212.332L203.152 120.63H208.792V116.7H213.382V120.63H216.802V124.59ZM227.861 116.55C229.701 116.85 231.111 117.54 232.091 118.62C233.071 119.68 233.561 121 233.561 122.58C233.561 123.8 233.241 124.93 232.601 125.97C231.961 126.99 230.981 127.81 229.661 128.43C228.361 129.05 226.761 129.36 224.861 129.36C223.381 129.36 221.921 129.17 220.481 128.79C219.061 128.39 217.851 127.83 216.851 127.11L218.741 123.39C219.541 123.99 220.461 124.46 221.501 124.8C222.561 125.12 223.641 125.28 224.741 125.28C225.961 125.28 226.921 125.05 227.621 124.59C228.321 124.11 228.671 123.44 228.671 122.58C228.671 120.86 227.361 120 224.741 120H222.521V116.79L226.841 111.9H217.901V108H232.601V111.15L227.861 116.55Z" fill="black"/>
</svg>
