<svg width="255" height="157" viewBox="0 0 255 157" fill="none" xmlns="http://www.w3.org/2000/svg">
<rect width="255" height="157" rx="8" fill="#FEF6FB"/>
<g clip-path="url(#clip0_17_53)">
<path d="M23.5 20H44.5C46.433 20 48 21.469 48 23.2812V55L34 47.3438L20 55V23.2812C20 21.469 21.567 20 23.5 20ZM22.3333 51.1915L34 44.8113L45.6667 51.1915V23.2812C45.6667 22.6782 45.1433 22.1875 44.5 22.1875H23.5C22.8567 22.1875 22.3333 22.6782 22.3333 23.2812V51.1915Z" fill="#EE95C5"/>
</g>
<path d="M25.852 87.112C24.872 87.112 23.9853 86.8973 23.192 86.468C22.408 86.0293 21.792 85.432 21.344 84.676C20.896 83.9107 20.672 83.052 20.672 82.1C20.672 81.148 20.896 80.294 21.344 79.538C21.792 78.7727 22.4127 78.1753 23.206 77.746C23.9993 77.3073 24.886 77.088 25.866 77.088C26.6313 77.088 27.3313 77.2187 27.966 77.48C28.6007 77.732 29.142 78.11 29.59 78.614L28.68 79.496C27.9427 78.7213 27.0233 78.334 25.922 78.334C25.194 78.334 24.536 78.4973 23.948 78.824C23.36 79.1507 22.898 79.6033 22.562 80.182C22.2353 80.7513 22.072 81.3907 22.072 82.1C22.072 82.8093 22.2353 83.4533 22.562 84.032C22.898 84.6013 23.36 85.0493 23.948 85.376C24.536 85.7027 25.194 85.866 25.922 85.866C27.014 85.866 27.9333 85.474 28.68 84.69L29.59 85.572C29.142 86.076 28.596 86.4587 27.952 86.72C27.3173 86.9813 26.6173 87.112 25.852 87.112ZM34.2547 87.084C33.5174 87.084 32.8547 86.9207 32.2667 86.594C31.6787 86.2673 31.2167 85.8193 30.8807 85.25C30.5541 84.6713 30.3907 84.018 30.3907 83.29C30.3907 82.562 30.5541 81.9133 30.8807 81.344C31.2167 80.7653 31.6787 80.3173 32.2667 80C32.8547 79.6733 33.5174 79.51 34.2547 79.51C34.9921 79.51 35.6501 79.6733 36.2287 80C36.8167 80.3173 37.2741 80.7653 37.6007 81.344C37.9367 81.9133 38.1047 82.562 38.1047 83.29C38.1047 84.018 37.9367 84.6713 37.6007 85.25C37.2741 85.8193 36.8167 86.2673 36.2287 86.594C35.6501 86.9207 34.9921 87.084 34.2547 87.084ZM34.2547 85.908C34.7307 85.908 35.1554 85.8007 35.5287 85.586C35.9114 85.362 36.2101 85.054 36.4247 84.662C36.6394 84.2607 36.7467 83.8033 36.7467 83.29C36.7467 82.7767 36.6394 82.324 36.4247 81.932C36.2101 81.5307 35.9114 81.2227 35.5287 81.008C35.1554 80.7933 34.7307 80.686 34.2547 80.686C33.7787 80.686 33.3494 80.7933 32.9667 81.008C32.5934 81.2227 32.2947 81.5307 32.0707 81.932C31.8561 82.324 31.7487 82.7767 31.7487 83.29C31.7487 83.8033 31.8561 84.2607 32.0707 84.662C32.2947 85.054 32.5934 85.362 32.9667 85.586C33.3494 85.8007 33.7787 85.908 34.2547 85.908ZM46.8795 79.58V87H45.6055V85.88C45.3348 86.2627 44.9755 86.5613 44.5275 86.776C44.0888 86.9813 43.6081 87.084 43.0855 87.084C42.0961 87.084 41.3168 86.8133 40.7475 86.272C40.1781 85.7213 39.8935 84.914 39.8935 83.85V79.58H41.2375V83.696C41.2375 84.4147 41.4101 84.9607 41.7555 85.334C42.1008 85.698 42.5955 85.88 43.2395 85.88C43.9488 85.88 44.5088 85.6653 44.9195 85.236C45.3301 84.8067 45.5355 84.2 45.5355 83.416V79.58H46.8795ZM50.7261 80.826C50.9594 80.3967 51.3047 80.07 51.7621 79.846C52.2194 79.622 52.7747 79.51 53.4281 79.51V80.812C53.3534 80.8027 53.2507 80.798 53.1201 80.798C52.3921 80.798 51.8181 81.0173 51.3981 81.456C50.9874 81.8853 50.7821 82.5013 50.7821 83.304V87H49.4381V79.58H50.7261V80.826ZM57.2672 87.084C56.6606 87.084 56.0772 87.0047 55.5172 86.846C54.9572 86.678 54.5186 86.468 54.2012 86.216L54.7612 85.152C55.0879 85.3853 55.4846 85.572 55.9512 85.712C56.4179 85.852 56.8892 85.922 57.3652 85.922C58.5412 85.922 59.1292 85.586 59.1292 84.914C59.1292 84.69 59.0499 84.5127 58.8912 84.382C58.7326 84.2513 58.5319 84.158 58.2892 84.102C58.0559 84.0367 57.7199 83.9667 57.2812 83.892C56.6839 83.7987 56.1939 83.6913 55.8112 83.57C55.4379 83.4487 55.1159 83.2433 54.8452 82.954C54.5746 82.6647 54.4392 82.2587 54.4392 81.736C54.4392 81.064 54.7192 80.5273 55.2792 80.126C55.8392 79.7153 56.5906 79.51 57.5332 79.51C58.0279 79.51 58.5226 79.5707 59.0172 79.692C59.5119 79.8133 59.9179 79.9767 60.2352 80.182L59.6612 81.246C59.0546 80.854 58.3406 80.658 57.5192 80.658C56.9499 80.658 56.5159 80.7513 56.2172 80.938C55.9186 81.1247 55.7692 81.372 55.7692 81.68C55.7692 81.9227 55.8532 82.114 56.0212 82.254C56.1892 82.394 56.3946 82.4967 56.6372 82.562C56.8892 82.6273 57.2392 82.702 57.6872 82.786C58.2846 82.8887 58.7652 83.0007 59.1292 83.122C59.5026 83.234 59.8199 83.43 60.0812 83.71C60.3426 83.99 60.4732 84.382 60.4732 84.886C60.4732 85.558 60.1839 86.0947 59.6052 86.496C59.0359 86.888 58.2566 87.084 57.2672 87.084ZM68.8589 83.332C68.8589 83.4347 68.8496 83.57 68.8309 83.738H62.8109C62.8949 84.3913 63.1796 84.9187 63.6649 85.32C64.1596 85.712 64.7709 85.908 65.4989 85.908C66.3856 85.908 67.0996 85.6093 67.6409 85.012L68.3829 85.88C68.0469 86.272 67.6269 86.5707 67.1229 86.776C66.6282 86.9813 66.0729 87.084 65.4569 87.084C64.6729 87.084 63.9776 86.9253 63.3709 86.608C62.7642 86.2813 62.2929 85.8287 61.9569 85.25C61.6302 84.6713 61.4669 84.018 61.4669 83.29C61.4669 82.5713 61.6256 81.9227 61.9429 81.344C62.2696 80.7653 62.7129 80.3173 63.2729 80C63.8422 79.6733 64.4816 79.51 65.1909 79.51C65.9002 79.51 66.5302 79.6733 67.0809 80C67.6409 80.3173 68.0749 80.7653 68.3829 81.344C68.7002 81.9227 68.8589 82.5853 68.8589 83.332ZM65.1909 80.644C64.5469 80.644 64.0056 80.84 63.5669 81.232C63.1376 81.624 62.8856 82.1373 62.8109 82.772H67.5709C67.4962 82.1467 67.2396 81.638 66.8009 81.246C66.3716 80.8447 65.8349 80.644 65.1909 80.644Z" fill="#6C6C6C"/>
<path d="M214.768 108V129H209.908V111.9H205.708V108H214.768ZM228.226 116.55C230.066 116.85 231.476 117.54 232.456 118.62C233.436 119.68 233.926 121 233.926 122.58C233.926 123.8 233.606 124.93 232.966 125.97C232.326 126.99 231.346 127.81 230.026 128.43C228.726 129.05 227.126 129.36 225.226 129.36C223.746 129.36 222.286 129.17 220.846 128.79C219.426 128.39 218.216 127.83 217.216 127.11L219.106 123.39C219.906 123.99 220.826 124.46 221.866 124.8C222.926 125.12 224.006 125.28 225.106 125.28C226.326 125.28 227.286 125.05 227.986 124.59C228.686 124.11 229.036 123.44 229.036 122.58C229.036 120.86 227.726 120 225.106 120H222.886V116.79L227.206 111.9H218.266V108H232.966V111.15L228.226 116.55Z" fill="black"/>
<defs>
<clipPath id="clip0_17_53">
<rect width="28" height="35" fill="white" transform="matrix(-1 0 0 1 48 20)"/>
</clipPath>
</defs>
</svg>
